<svg
   xmlns="http://www.w3.org/2000/svg"
   viewBox="0 -250 1122.52 293.70667"
   height="293.70667"
   width="1122.52"
   id="svg2"
   version="1.1"><defs
     id="defs6"><clipPath
       id="clipPath18"
       clipPathUnits="userSpaceOnUse"><path
         id="path16"
         d="M 0,595.28 H 841.89 V 0 H 0 Z" /></clipPath></defs><g
     transform="matrix(1.3333333,0,0,-1.3333333,0,293.70667)"
     id="g10"><g
       id="g12"><g
         clip-path="url(#clipPath18)"
         id="g14"><g
           transform="translate(230.6399,309.1215)"
           id="g20"><path
             id="path22"
             style="fill:#b48650;fill-opacity:1;fill-rule:nonzero;stroke:none"
             d="m 0,0 c -31.289,11.362 -55.438,12.122 -72.959,9.16 -41.776,-28.991 -25.832,-107.598 -3.482,-117.388 16.817,-7.366 30.274,-4.913 30.274,-4.913 1.135,33.267 -4.874,48.307 -13.106,64.055 C -13.406,-33.203 0,0 0,0" /></g><g
           transform="translate(98.1794,318.281)"
           id="g24"><path
             id="path26"
             style="fill:#b48650;fill-opacity:1;fill-rule:nonzero;stroke:none"
             d="m 0,0 c -17.52,2.962 -41.671,2.202 -72.959,-9.16 0,0 13.406,-33.203 59.272,-49.086 -8.231,-15.748 -14.24,-30.788 -13.104,-64.055 0,0 13.456,-2.452 30.272,4.914 C 25.832,-107.598 41.776,-28.991 0,0" /></g><g
           transform="translate(107.8456,320.7541)"
           id="g28"><path
             id="path30"
             style="fill:#b48650;fill-opacity:1;fill-rule:nonzero;stroke:none"
             d="M 0,0 C 5.878,-5.161 11.495,-11.262 15.903,-18.37 V 0 Z" /></g><g
           transform="translate(125.8626,353.003)"
           id="g32"><path
             id="path34"
             style="fill:#b48650;fill-opacity:1;fill-rule:nonzero;stroke:none"
             d="M 0,0 C 2.526,2.386 6.409,2.441 8.996,0.242 5.331,2.311 2.087,-2.131 4.319,-4.553 7.191,-7.668 4.291,-12.257 0.179,-9.973 0.023,-9.836 -0.128,-9.691 -0.272,-9.538 -2.831,-6.829 -2.709,-2.558 0,0 M -2.114,-13.124 H 6.25 v -12.754 h 23.517 c -7.607,31.622 -27.7,72.567 -27.7,72.567 0,0 -19.951,-40.211 -27.718,-72.567 h 23.537 z" /></g><g
           transform="translate(132.1124,302.3114)"
           id="g36"><path
             id="path38"
             style="fill:#b48650;fill-opacity:1;fill-rule:nonzero;stroke:none"
             d="M 0,0 C 4.429,7.143 10.081,13.265 15.989,18.443 H 0 Z" /></g><g
           transform="translate(296.3928,202.1929)"
           id="g40"><path
             id="path42"
             style="fill:#b48650;fill-opacity:1;fill-rule:nonzero;stroke:none"
             d="m 0,0 c -2.104,6.149 -4.004,11.454 -5.699,15.9 -1.695,4.451 -3.077,7.728 -4.143,9.834 l -2.461,0.306 v 1.169 c 0.795,0 2.034,-0.005 3.721,-0.02 1.69,-0.016 2.979,-0.021 3.867,-0.021 0.862,0 2.197,0.005 4.008,0.021 1.812,0.015 3.197,0.02 4.151,0.02 V 26.04 L 0.719,25.734 c 0.464,-2.148 1.25,-4.958 2.358,-8.426 1.108,-3.473 2.474,-7.453 4.099,-11.936 2.873,6.983 4.796,11.786 5.774,14.405 0.976,2.619 1.63,4.601 1.956,5.957 l -2.87,0.306 0.021,1.169 c 0.505,-0.015 1.048,-0.026 1.63,-0.031 0.58,-0.005 1.46,-0.01 2.635,-0.01 1.175,0 2.055,0.005 2.634,0.01 0.583,0.005 1.118,0.016 1.61,0.031 V 26.04 l -2.44,-0.306 C 17.279,24.269 15.929,21.433 14.078,17.225 12.225,13.012 9.816,7.272 6.85,0 Z" /></g><g
           transform="translate(330.1158,214.9668)"
           id="g44"><path
             id="path46"
             style="fill:#b48650;fill-opacity:1;fill-rule:nonzero;stroke:none"
             d="m 0,0 c 0,0.166 0.008,0.409 0.021,0.74 0.015,0.326 0.02,0.564 0.02,0.714 0,1.941 -0.204,3.323 -0.613,4.146 -0.411,0.818 -1.087,1.227 -2.031,1.227 -1.217,0 -2.084,-0.45 -2.604,-1.351 -0.52,-0.901 -0.779,-2.448 -0.779,-4.638 0,-0.351 0.011,-0.76 0.031,-1.216 0.021,-0.46 0.052,-0.973 0.091,-1.547 z m -5.781,-3.323 c 0.028,-2.526 0.582,-4.456 1.661,-5.781 1.079,-1.325 2.624,-1.988 4.635,-1.988 0.859,0 1.744,0.155 2.655,0.461 0.909,0.305 1.84,0.771 2.798,1.382 v -1.558 c -1.545,-0.859 -3.147,-1.501 -4.809,-1.926 -1.661,-0.424 -3.426,-0.636 -5.3,-0.636 -3.473,0 -6.224,0.983 -8.252,2.955 -2.029,1.967 -3.046,4.638 -3.046,8.018 0,3.442 1.18,6.112 3.537,8.017 2.358,1.899 5.67,2.847 9.935,2.847 3.02,0 5.311,-0.585 6.869,-1.755 C 6.459,5.548 7.238,3.82 7.238,1.537 7.238,1.294 7.213,0.875 7.158,0.29 V 0.166 C 5.176,-0.326 3.113,-0.864 0.976,-1.444 -1.165,-2.029 -3.416,-2.65 -5.781,-3.323" /></g><g
           transform="translate(341.3913,202.1929)"
           id="g48"><path
             id="path50"
             style="fill:#b48650;fill-opacity:1;fill-rule:nonzero;stroke:none"
             d="m 0,0 v 1.17 l 2.728,0.554 c 0.08,1.118 0.142,2.355 0.183,3.7 0.042,1.346 0.063,2.997 0.063,4.954 0,0.61 -0.016,1.676 -0.042,3.198 -0.028,1.517 -0.07,3.245 -0.124,5.186 l -2.479,0.637 -0.042,1.227 c 0.642,-0.042 1.338,-0.068 2.091,-0.078 0.751,-0.016 1.892,-0.021 3.424,-0.021 1.532,0 2.684,0.005 3.455,0.026 0.774,0.016 1.493,0.042 2.163,0.073 -0.028,-0.466 -0.049,-0.823 -0.062,-1.072 -0.013,-0.248 -0.02,-0.476 -0.02,-0.683 0,-0.135 0.007,-0.342 0.02,-0.606 0.013,-0.269 0.021,-0.465 0.021,-0.59 1.695,1.134 3.25,1.978 4.666,2.531 1.413,0.554 2.73,0.834 3.947,0.834 1.762,0 3.092,-0.564 3.988,-1.693 0.895,-1.128 1.343,-2.805 1.343,-5.036 V 6.542 c 0,-1.149 0.007,-2.091 0.02,-2.821 0.013,-0.729 0.034,-1.454 0.062,-2.163 L 27.926,1.253 V 0 c -0.792,0.026 -1.651,0.047 -2.572,0.062 -0.924,0.01 -2.28,0.021 -4.071,0.021 -1.778,0 -3.1,-0.011 -3.967,-0.021 C 16.446,0.047 15.644,0.026 14.906,0 v 1.17 l 1.97,0.388 c 0.067,1.382 0.119,2.691 0.152,3.928 0.034,1.237 0.052,2.417 0.052,3.535 v 1.434 c 0,3.106 -0.181,5.031 -0.543,5.776 -0.363,0.746 -1.064,1.118 -2.102,1.118 -0.561,0 -1.11,-0.15 -1.651,-0.445 -0.541,-0.29 -1.035,-0.719 -1.485,-1.278 -0.042,-0.984 -0.073,-1.827 -0.093,-2.526 -0.021,-0.694 -0.031,-1.258 -0.031,-1.677 0,-2.588 0.013,-4.663 0.041,-6.237 0.026,-1.568 0.067,-2.779 0.122,-3.628 L 13.431,1.17 V 0 C 12.665,0.026 11.827,0.047 10.918,0.062 10.01,0.072 8.638,0.083 6.806,0.083 4.948,0.083 3.553,0.072 2.624,0.062 1.695,0.047 0.82,0.026 0,0" /></g><g
           transform="translate(372.3039,222.7979)"
           id="g52"><path
             id="path54"
             style="fill:#b48650;fill-opacity:1;fill-rule:nonzero;stroke:none"
             d="m 0,0 c 1.558,-0.026 2.722,-0.047 3.496,-0.057 0.771,-0.015 1.481,-0.021 2.122,-0.021 0.655,0 1.375,0.006 2.153,0.021 0.779,0.01 1.9,0.031 3.362,0.057 -0.109,-2.666 -0.186,-4.958 -0.235,-6.889 -0.047,-1.925 -0.073,-3.696 -0.073,-5.31 0,-2.133 0.233,-3.66 0.699,-4.581 0.463,-0.921 1.216,-1.387 2.254,-1.387 0.507,0 0.999,0.109 1.478,0.321 0.478,0.212 0.921,0.528 1.333,0.952 0.025,1.051 0.046,1.853 0.062,2.402 0.013,0.543 0.02,1.045 0.02,1.496 0,2.789 -0.018,5.061 -0.051,6.826 -0.037,1.765 -0.086,3.235 -0.156,4.41 L 13.819,-1.165 13.778,0 13.902,-0.016 c 2.433,-0.041 4.265,-0.062 5.494,-0.062 1.258,0 3.139,0.026 5.639,0.078 h 0.125 c -0.112,-1.651 -0.189,-3.338 -0.236,-5.052 -0.049,-1.718 -0.072,-3.467 -0.072,-5.258 0,-0.973 0.01,-2.169 0.031,-3.592 0.02,-1.418 0.052,-3.059 0.09,-4.917 l 2.278,-0.533 v -1.253 c -0.671,0.026 -1.387,0.047 -2.153,0.062 -0.766,0.011 -1.895,0.021 -3.383,0.021 -1.465,0 -2.552,-0.01 -3.261,-0.021 -0.711,-0.015 -1.361,-0.036 -1.948,-0.062 v 1.641 c -0.997,-0.673 -2.094,-1.18 -3.292,-1.527 -1.196,-0.352 -2.464,-0.523 -3.802,-0.523 -2.624,0 -4.451,0.678 -5.476,2.039 -1.025,1.362 -1.537,3.898 -1.537,7.619 0,0.435 0.008,1.242 0.021,2.417 0.013,1.175 0.02,2.133 0.02,2.873 0,0.393 -0.02,1.263 -0.062,2.603 -0.013,0.725 -0.02,1.3 -0.02,1.724 L 0,-1.165 Z" /></g><g
           transform="translate(402.8697,202.1929)"
           id="g56"><path
             id="path58"
             style="fill:#b48650;fill-opacity:1;fill-rule:nonzero;stroke:none"
             d="m 0,0 c 0.207,1.108 0.404,2.251 0.595,3.437 0.192,1.18 0.37,2.401 0.533,3.659 h 1.23 v -0.45 c 0,-1.905 0.37,-3.344 1.107,-4.327 0.74,-0.984 1.82,-1.481 3.24,-1.481 1.041,0 1.825,0.254 2.358,0.751 0.533,0.497 0.8,1.227 0.8,2.184 0,0.476 -0.086,0.911 -0.257,1.294 C 9.436,5.445 9.187,5.776 8.858,6.051 8.325,6.501 7.544,6.961 6.511,7.432 5.479,7.903 4.819,8.23 4.531,8.406 3.328,9.078 2.433,9.87 1.845,10.786 c -0.587,0.917 -0.88,1.967 -0.88,3.158 0,2.173 0.942,3.933 2.829,5.279 1.886,1.346 4.402,2.019 7.546,2.019 1.149,0 2.891,-0.202 5.228,-0.616 0.642,-0.119 1.12,-0.213 1.436,-0.264 -0.22,-0.834 -0.435,-1.724 -0.647,-2.666 -0.212,-0.942 -0.414,-1.941 -0.603,-2.997 h -1.17 v 0.29 c 0,1.532 -0.305,2.728 -0.913,3.587 -0.608,0.864 -1.439,1.294 -2.49,1.294 -0.916,0 -1.664,-0.311 -2.246,-0.932 -0.58,-0.626 -0.872,-1.407 -0.872,-2.349 0,-0.71 0.222,-1.294 0.668,-1.755 0.442,-0.456 1.498,-1.051 3.167,-1.77 0.137,-0.073 0.349,-0.166 0.637,-0.29 1.216,-0.518 2.132,-1.025 2.746,-1.517 0.574,-0.45 0.991,-1.019 1.252,-1.702 0.259,-0.684 0.388,-1.558 0.388,-2.625 0,-2.5 -0.918,-4.373 -2.756,-5.615 -1.84,-1.248 -4.612,-1.869 -8.315,-1.869 -1.219,0 -2.394,0.047 -3.527,0.145 C 2.187,-0.316 1.082,-0.176 0,0" /></g><g
           transform="translate(441.4916,229.4022)"
           id="g60"><path
             id="path62"
             style="fill:#b48650;fill-opacity:1;fill-rule:nonzero;stroke:none"
             d="m 0,0 c 1.682,0 3.954,-0.005 6.817,-0.021 2.864,-0.015 4.891,-0.02 6.081,-0.02 1.367,0 3.178,0.005 5.432,0.02 C 20.587,-0.005 22.165,0 23.069,0 v -7.257 h -1.395 l -0.042,0.922 c -0.083,1.749 -0.685,2.981 -1.814,3.701 -1.128,0.719 -3.087,1.076 -5.874,1.076 -0.508,0 -0.896,-0.005 -1.17,-0.01 -0.274,-0.005 -0.525,-0.016 -0.758,-0.031 -0.055,-1.667 -0.096,-3.365 -0.125,-5.093 -0.025,-1.734 -0.038,-3.515 -0.038,-5.342 0.217,-0.031 0.432,-0.046 0.644,-0.052 0.212,-0.01 0.531,-0.01 0.955,-0.01 1.542,0 2.637,0.171 3.279,0.513 0.644,0.341 1.007,0.926 1.087,1.759 l 0.124,1.253 h 1.209 c -0.026,-0.559 -0.047,-1.17 -0.063,-1.822 -0.013,-0.657 -0.018,-1.63 -0.018,-2.914 0,-1.04 0.003,-1.817 0.011,-2.339 0.005,-0.518 0.015,-0.994 0.028,-1.434 h -1.167 l -0.166,0.921 c -0.204,0.999 -0.74,1.718 -1.609,2.153 -0.867,0.44 -2.21,0.658 -4.027,0.658 H 11.853 V -16.2 c 0,-1.952 0.015,-3.685 0.049,-5.197 0.036,-1.511 0.085,-2.929 0.155,-4.254 l 2.603,-0.389 v -1.169 H 0 v 1.045 l 2.482,0.471 c 0.067,1.191 0.111,2.583 0.132,4.182 0.02,1.6 0.031,4.255 0.031,7.956 0,2.556 -0.021,4.834 -0.062,6.832 -0.042,1.992 -0.101,3.716 -0.184,5.165 L 0,-1.17 Z" /></g><g
           transform="translate(466.1311,222.7979)"
           id="g64"><path
             id="path66"
             style="fill:#b48650;fill-opacity:1;fill-rule:nonzero;stroke:none"
             d="m 0,0 c 1.558,-0.026 2.723,-0.047 3.496,-0.057 0.771,-0.015 1.481,-0.021 2.122,-0.021 0.655,0 1.375,0.006 2.154,0.021 0.778,0.01 1.899,0.031 3.361,0.057 -0.108,-2.666 -0.186,-4.958 -0.235,-6.889 -0.047,-1.925 -0.073,-3.696 -0.073,-5.31 0,-2.133 0.233,-3.66 0.699,-4.581 0.463,-0.921 1.216,-1.387 2.254,-1.387 0.507,0 0.999,0.109 1.478,0.321 0.478,0.212 0.921,0.528 1.333,0.952 0.025,1.051 0.046,1.853 0.062,2.402 0.013,0.543 0.02,1.045 0.02,1.496 0,2.789 -0.018,5.061 -0.051,6.826 -0.037,1.765 -0.086,3.235 -0.156,4.41 L 13.819,-1.165 13.778,0 13.902,-0.016 c 2.433,-0.041 4.265,-0.062 5.494,-0.062 1.258,0 3.14,0.026 5.639,0.078 h 0.125 c -0.112,-1.651 -0.189,-3.338 -0.236,-5.052 -0.049,-1.718 -0.072,-3.467 -0.072,-5.258 0,-0.973 0.01,-2.169 0.031,-3.592 0.02,-1.418 0.052,-3.059 0.09,-4.917 l 2.278,-0.533 v -1.253 c -0.671,0.026 -1.387,0.047 -2.153,0.062 -0.766,0.011 -1.895,0.021 -3.383,0.021 -1.465,0 -2.552,-0.01 -3.261,-0.021 -0.711,-0.015 -1.361,-0.036 -1.948,-0.062 v 1.641 c -0.997,-0.673 -2.094,-1.18 -3.292,-1.527 -1.196,-0.352 -2.464,-0.523 -3.802,-0.523 -2.624,0 -4.451,0.678 -5.476,2.039 -1.025,1.362 -1.537,3.898 -1.537,7.619 0,0.435 0.008,1.242 0.021,2.417 0.013,1.175 0.02,2.133 0.02,2.873 0,0.393 -0.02,1.263 -0.062,2.603 -0.013,0.725 -0.02,1.3 -0.02,1.724 L 0,-1.165 Z" /></g><g
           transform="translate(496.8211,202.1929)"
           id="g68"><path
             id="path70"
             style="fill:#b48650;fill-opacity:1;fill-rule:nonzero;stroke:none"
             d="m 0,0 v 1.17 l 2.728,0.554 c 0.08,1.118 0.142,2.355 0.183,3.7 0.042,1.346 0.063,2.997 0.063,4.954 0,0.61 -0.016,1.676 -0.042,3.198 -0.028,1.517 -0.07,3.245 -0.124,5.186 l -2.479,0.637 -0.042,1.227 c 0.642,-0.042 1.338,-0.068 2.091,-0.078 0.751,-0.016 1.892,-0.021 3.424,-0.021 1.532,0 2.684,0.005 3.455,0.026 0.774,0.016 1.493,0.042 2.163,0.073 -0.028,-0.466 -0.049,-0.823 -0.062,-1.072 -0.013,-0.248 -0.02,-0.476 -0.02,-0.683 0,-0.135 0.007,-0.342 0.02,-0.606 0.013,-0.269 0.021,-0.465 0.021,-0.59 1.695,1.134 3.25,1.978 4.666,2.531 1.413,0.554 2.73,0.834 3.947,0.834 1.762,0 3.092,-0.564 3.988,-1.693 0.895,-1.128 1.343,-2.805 1.343,-5.036 V 6.542 c 0,-1.149 0.007,-2.091 0.02,-2.821 0.013,-0.729 0.034,-1.454 0.062,-2.163 L 27.926,1.253 V 0 c -0.792,0.026 -1.651,0.047 -2.572,0.062 -0.924,0.01 -2.28,0.021 -4.071,0.021 -1.778,0 -3.1,-0.011 -3.967,-0.021 C 16.446,0.047 15.644,0.026 14.906,0 v 1.17 l 1.97,0.388 c 0.067,1.382 0.119,2.691 0.152,3.928 0.034,1.237 0.052,2.417 0.052,3.535 v 1.434 c 0,3.106 -0.181,5.031 -0.543,5.776 -0.363,0.746 -1.064,1.118 -2.102,1.118 -0.561,0 -1.11,-0.15 -1.651,-0.445 -0.541,-0.29 -1.035,-0.719 -1.485,-1.278 -0.042,-0.984 -0.073,-1.827 -0.093,-2.526 -0.021,-0.694 -0.031,-1.258 -0.031,-1.677 0,-2.588 0.013,-4.663 0.041,-6.237 0.026,-1.568 0.067,-2.779 0.122,-3.628 L 13.431,1.17 V 0 C 12.665,0.026 11.827,0.047 10.918,0.062 10.01,0.072 8.638,0.083 6.806,0.083 4.948,0.083 3.553,0.072 2.624,0.062 1.695,0.047 0.82,0.026 0,0" /></g><g
           transform="translate(543.8926,214.9668)"
           id="g72"><path
             id="path74"
             style="fill:#b48650;fill-opacity:1;fill-rule:nonzero;stroke:none"
             d="m 0,0 c 0,0.166 0.008,0.409 0.021,0.74 0.015,0.326 0.02,0.564 0.02,0.714 0,1.941 -0.204,3.323 -0.613,4.146 -0.411,0.818 -1.087,1.227 -2.031,1.227 -1.217,0 -2.084,-0.45 -2.604,-1.351 -0.52,-0.901 -0.779,-2.448 -0.779,-4.638 0,-0.351 0.011,-0.76 0.031,-1.216 0.021,-0.46 0.052,-0.973 0.091,-1.547 z m -5.781,-3.323 c 0.028,-2.526 0.582,-4.456 1.661,-5.781 1.079,-1.325 2.624,-1.988 4.635,-1.988 0.859,0 1.744,0.155 2.655,0.461 0.909,0.305 1.84,0.771 2.798,1.382 v -1.558 c -1.545,-0.859 -3.147,-1.501 -4.809,-1.926 -1.661,-0.424 -3.426,-0.636 -5.3,-0.636 -3.473,0 -6.224,0.983 -8.252,2.955 -2.029,1.967 -3.046,4.638 -3.046,8.018 0,3.442 1.18,6.112 3.537,8.017 2.358,1.899 5.67,2.847 9.935,2.847 3.02,0 5.311,-0.585 6.869,-1.755 C 6.459,5.548 7.238,3.82 7.238,1.537 7.238,1.294 7.213,0.875 7.158,0.29 V 0.166 C 5.176,-0.326 3.113,-0.864 0.976,-1.444 -1.165,-2.029 -3.416,-2.65 -5.781,-3.323" /></g><g
           transform="translate(555.4528,202.1929)"
           id="g76"><path
             id="path78"
             style="fill:#b48650;fill-opacity:1;fill-rule:nonzero;stroke:none"
             d="m 0,0 v 1.17 l 2.399,0.698 c 0.067,1.036 0.119,2.231 0.153,3.577 0.033,1.346 0.051,2.992 0.051,4.933 0,2.624 -0.01,4.482 -0.031,5.574 -0.02,1.092 -0.051,2.029 -0.093,2.81 L 0,19.358 v 1.268 l 0.122,-0.021 c 2.448,-0.052 4.272,-0.078 5.476,-0.078 0.654,0 1.374,0.005 2.153,0.026 0.779,0.016 1.866,0.042 3.261,0.073 -0.083,-0.792 -0.148,-1.626 -0.197,-2.5 -0.047,-0.87 -0.078,-1.801 -0.091,-2.79 0.929,1.848 1.988,3.209 3.178,4.094 1.188,0.88 2.562,1.32 4.12,1.32 0.329,0 0.694,-0.031 1.097,-0.104 0.404,-0.067 0.852,-0.176 1.344,-0.326 -0.301,-1.149 -0.58,-2.334 -0.841,-3.556 -0.259,-1.226 -0.5,-2.474 -0.717,-3.742 h -1.212 c -0.054,0.86 -0.336,1.538 -0.848,2.029 -0.513,0.492 -1.201,0.735 -2.063,0.735 -1.475,0 -2.5,-0.466 -3.074,-1.402 C 11.133,13.447 10.846,11.34 10.846,8.059 V 1.806 L 13.902,1.17 V 0 C 13.066,0.026 12.158,0.047 11.175,0.062 10.191,0.072 8.734,0.083 6.806,0.083 4.92,0.083 3.512,0.072 2.583,0.062 1.654,0.047 0.792,0.026 0,0" /></g><g
           transform="translate(594.1808,207.2393)"
           id="g80"><path
             id="path82"
             style="fill:#b48650;fill-opacity:1;fill-rule:nonzero;stroke:none"
             d="m 0,0 v 4.57 c 0,0.792 -0.106,1.279 -0.318,1.455 -0.213,0.181 -0.598,0.269 -1.16,0.269 -1.653,0 -2.771,-0.326 -3.351,-0.973 -0.582,-0.652 -0.872,-1.879 -0.872,-3.685 0,-1.408 0.225,-2.433 0.675,-3.075 0.453,-0.642 1.178,-0.963 2.174,-0.963 1.079,0 1.825,0.14 2.236,0.42 C -0.207,-1.703 0,-1.04 0,0 m -0.083,-5.046 v 1.847 c -1.299,-0.797 -2.629,-1.382 -3.988,-1.754 -1.361,-0.378 -2.846,-0.564 -4.459,-0.564 -2.011,0 -3.563,0.538 -4.655,1.62 -1.095,1.076 -1.641,2.619 -1.641,4.611 0,2.35 0.944,4.12 2.828,5.311 1.887,1.19 4.71,1.785 8.471,1.785 0.683,0 1.288,-0.005 1.814,-0.01 0.525,-0.005 1.069,-0.016 1.63,-0.031 v 0.248 c 0,2.376 -0.336,4.063 -1.004,5.052 -0.67,0.994 -1.791,1.485 -3.364,1.485 -1.75,0 -3.119,-0.476 -4.11,-1.433 -0.991,-0.958 -1.555,-2.34 -1.692,-4.141 l -1.292,-0.083 c -0.124,0.916 -0.282,1.832 -0.471,2.749 -0.191,0.916 -0.424,1.832 -0.698,2.748 1.516,0.6 3.198,1.051 5.043,1.351 1.846,0.3 3.869,0.45 6.072,0.45 1.845,0 3.392,-0.098 4.642,-0.295 1.25,-0.202 2.198,-0.502 2.839,-0.916 C 6.786,14.399 7.417,13.638 7.779,12.712 8.142,11.78 8.323,10.16 8.323,7.852 V 6.045 C 8.323,5.238 8.307,4.073 8.274,2.552 8.237,1.025 8.222,-0.093 8.222,-0.802 c 0,-0.59 0.02,-1.082 0.062,-1.486 0.039,-0.403 0.093,-0.683 0.163,-0.833 0.067,-0.16 0.745,-0.368 2.029,-0.611 0.316,-0.057 0.561,-0.103 0.74,-0.145 l -0.021,-1.169 c -0.424,0.015 -0.903,0.025 -1.436,0.031 -0.533,0.005 -1.32,0.01 -2.358,0.01 -0.848,0 -2.101,-0.005 -3.762,-0.021 -1.662,-0.015 -2.901,-0.02 -3.722,-0.02" /></g><g
           transform="translate(608.3833,231.9642)"
           id="g84"><path
             id="path86"
             style="fill:#b48650;fill-opacity:1;fill-rule:nonzero;stroke:none"
             d="m 0,0 c 1.478,-0.026 2.614,-0.047 3.413,-0.062 0.8,-0.01 1.548,-0.021 2.247,-0.021 0.683,0 1.436,0.011 2.254,0.021 0.82,0.015 2.052,0.036 3.693,0.062 -0.124,-2.365 -0.223,-5.331 -0.298,-8.897 -0.075,-3.566 -0.114,-7.588 -0.114,-12.06 0,-0.9 0.018,-1.905 0.052,-3.012 0.034,-1.108 0.093,-2.428 0.173,-3.955 l 2.77,-0.678 v -1.169 c -0.862,0.026 -1.784,0.046 -2.77,0.062 -0.983,0.01 -2.44,0.021 -4.365,0.021 -1.902,0 -3.313,-0.011 -4.234,-0.021 -0.924,-0.016 -1.768,-0.036 -2.534,-0.062 v 1.169 l 2.645,0.554 c 0.083,2.257 0.145,4.477 0.184,6.672 0.041,2.194 0.062,4.379 0.062,6.552 0,2.418 -0.023,4.69 -0.073,6.807 -0.046,2.122 -0.124,4.135 -0.235,6.05 L 0,-1.289 Z" /></g><g
           transform="translate(661.3992,230.2045)"
           id="g88"><path
             id="path90"
             style="fill:#b48650;fill-opacity:1;fill-rule:nonzero;stroke:none"
             d="M 0,0 H 1.084 C 0.813,-1.548 0.567,-3.018 0.347,-4.41 0.129,-5.807 -0.07,-7.179 -0.248,-8.53 h -1.046 v 0.119 c 0,2.081 -0.474,3.685 -1.423,4.819 -0.95,1.133 -2.28,1.703 -3.988,1.703 -1.245,0 -2.208,-0.311 -2.891,-0.932 -0.686,-0.621 -1.027,-1.501 -1.027,-2.634 0,-1.75 1.86,-3.639 5.577,-5.663 0.37,-0.202 0.649,-0.362 0.841,-0.471 l 0.041,-0.02 c 3.841,-2.091 5.763,-4.659 5.763,-7.707 0,-3.147 -1.074,-5.466 -3.219,-6.962 -2.148,-1.495 -5.484,-2.246 -10.007,-2.246 -1.271,0 -2.454,0.067 -3.548,0.207 -1.093,0.135 -2.154,0.347 -3.178,0.632 l -0.451,-0.922 h -1.312 c 0.451,1.682 0.831,3.375 1.139,5.078 0.308,1.697 0.543,3.411 0.706,5.134 h 1.17 c 0,-0.124 -0.005,-0.264 -0.01,-0.419 -0.008,-0.161 -0.011,-0.383 -0.011,-0.668 0,-2.225 0.49,-3.996 1.465,-5.31 0.978,-1.315 2.28,-1.967 3.908,-1.967 1.242,0 2.308,0.45 3.199,1.361 0.887,0.911 1.332,1.988 1.332,3.23 0,1.449 -1.402,3.002 -4.205,4.653 -0.725,0.424 -1.284,0.761 -1.68,1.004 -2.132,1.341 -3.636,2.666 -4.51,3.97 -0.878,1.304 -1.315,2.842 -1.315,4.601 0,2.474 0.958,4.369 2.873,5.683 1.912,1.31 4.686,1.967 8.325,1.967 1.625,0 3.046,-0.072 4.265,-0.217 1.216,-0.14 2.262,-0.352 3.136,-0.621 z" /></g><g
           transform="translate(683.2696,214.9668)"
           id="g92"><path
             id="path94"
             style="fill:#b48650;fill-opacity:1;fill-rule:nonzero;stroke:none"
             d="m 0,0 c 0,0.166 0.008,0.409 0.021,0.74 0.015,0.326 0.02,0.564 0.02,0.714 0,1.941 -0.204,3.323 -0.613,4.146 -0.411,0.818 -1.087,1.227 -2.031,1.227 -1.217,0 -2.084,-0.45 -2.604,-1.351 -0.52,-0.901 -0.779,-2.448 -0.779,-4.638 0,-0.351 0.011,-0.76 0.031,-1.216 0.021,-0.46 0.052,-0.973 0.091,-1.547 z m -5.781,-3.323 c 0.028,-2.526 0.582,-4.456 1.661,-5.781 1.079,-1.325 2.624,-1.988 4.635,-1.988 0.859,0 1.744,0.155 2.655,0.461 0.909,0.305 1.84,0.771 2.798,1.382 v -1.558 c -1.545,-0.859 -3.147,-1.501 -4.809,-1.926 -1.661,-0.424 -3.426,-0.636 -5.3,-0.636 -3.473,0 -6.224,0.983 -8.252,2.955 -2.029,1.967 -3.046,4.638 -3.046,8.018 0,3.442 1.18,6.112 3.537,8.017 2.358,1.899 5.67,2.847 9.935,2.847 3.02,0 5.311,-0.585 6.869,-1.755 C 6.459,5.548 7.238,3.82 7.238,1.537 7.238,1.294 7.213,0.875 7.158,0.29 V 0.166 C 5.176,-0.326 3.113,-0.864 0.976,-1.444 -1.165,-2.029 -3.416,-2.65 -5.781,-3.323" /></g><g
           transform="translate(694.8298,202.1929)"
           id="g96"><path
             id="path98"
             style="fill:#b48650;fill-opacity:1;fill-rule:nonzero;stroke:none"
             d="m 0,0 v 1.17 l 2.399,0.698 c 0.067,1.036 0.119,2.231 0.153,3.577 0.033,1.346 0.051,2.992 0.051,4.933 0,2.624 -0.01,4.482 -0.031,5.574 -0.02,1.092 -0.051,2.029 -0.093,2.81 L 0,19.358 v 1.268 l 0.122,-0.021 c 2.448,-0.052 4.272,-0.078 5.476,-0.078 0.654,0 1.374,0.005 2.153,0.026 0.779,0.016 1.866,0.042 3.261,0.073 -0.083,-0.792 -0.148,-1.626 -0.197,-2.5 -0.047,-0.87 -0.078,-1.801 -0.091,-2.79 0.929,1.848 1.988,3.209 3.178,4.094 1.188,0.88 2.562,1.32 4.12,1.32 0.329,0 0.694,-0.031 1.097,-0.104 0.404,-0.067 0.852,-0.176 1.344,-0.326 -0.301,-1.149 -0.58,-2.334 -0.841,-3.556 -0.259,-1.226 -0.5,-2.474 -0.717,-3.742 h -1.212 c -0.054,0.86 -0.336,1.538 -0.848,2.029 -0.513,0.492 -1.201,0.735 -2.063,0.735 -1.475,0 -2.5,-0.466 -3.074,-1.402 C 11.133,13.447 10.846,11.34 10.846,8.059 V 1.806 L 13.902,1.17 V 0 C 13.066,0.026 12.158,0.047 11.175,0.062 10.191,0.072 8.734,0.083 6.806,0.083 4.92,0.083 3.512,0.072 2.583,0.062 1.654,0.047 0.792,0.026 0,0" /></g><g
           transform="translate(727.365,202.1929)"
           id="g100"><path
             id="path102"
             style="fill:#b48650;fill-opacity:1;fill-rule:nonzero;stroke:none"
             d="m 0,0 c -1.095,3.116 -2.259,6.242 -3.496,9.368 -1.24,3.132 -2.547,6.284 -3.929,9.456 l -2.316,0.534 v 1.247 c 1.874,-0.026 3.307,-0.047 4.306,-0.057 0.997,-0.016 1.928,-0.021 2.788,-0.021 1.573,0 3.993,0.021 7.259,0.062 l 0.145,0.016 V 19.358 L 2.192,18.907 C 2.479,17.334 2.971,15.517 3.67,13.452 4.366,11.387 5.303,8.959 6.478,6.17 c 1.174,2.396 2.197,4.647 3.066,6.759 0.867,2.112 1.581,4.089 2.143,5.937 L 9.41,19.358 v 1.247 c 1.04,-0.026 1.819,-0.047 2.337,-0.057 0.52,-0.016 0.998,-0.021 1.436,-0.021 0.45,0 0.944,0.005 1.478,0.021 0.533,0.01 1.291,0.031 2.274,0.057 l -0.02,-1.247 c -0.616,-0.042 -1.09,-0.14 -1.426,-0.29 -0.334,-0.15 -0.598,-0.373 -0.79,-0.673 C 13.92,17.173 12.701,14.922 11.04,11.625 9.379,8.333 7.518,4.456 5.453,0 Z" /></g><g
           transform="translate(748.7049,228.4395)"
           id="g104"><path
             id="path106"
             style="fill:#b48650;fill-opacity:1;fill-rule:nonzero;stroke:none"
             d="M 0,0 C 0,1.066 0.36,1.941 1.077,2.624 1.793,3.307 2.712,3.649 3.835,3.649 4.901,3.649 5.802,3.297 6.54,2.593 7.28,1.889 7.647,1.025 7.647,0 7.647,-1.082 7.293,-1.956 6.581,-2.634 5.869,-3.313 4.956,-3.649 3.835,-3.649 2.712,-3.649 1.793,-3.307 1.077,-2.624 0.36,-1.941 0,-1.066 0,0 m -2.686,-26.247 v 1.17 l 2.399,0.513 v 4.653 c 0,2.681 -0.013,5.036 -0.042,7.075 -0.028,2.034 -0.067,3.866 -0.121,5.497 l -2.482,0.409 v 1.268 c 0.396,0 1.022,-0.011 1.876,-0.031 0.854,-0.016 1.499,-0.026 1.938,-0.026 1.16,0 2.361,0.01 3.598,0.036 1.237,0.031 2.505,0.057 3.804,0.083 C 8.255,-6.201 8.235,-6.817 8.222,-7.453 8.209,-8.09 8.201,-8.866 8.201,-9.782 c 0,-3.39 0.023,-6.351 0.073,-8.887 0.046,-2.536 0.119,-4.488 0.214,-5.854 l 2.399,-0.554 v -1.17 c -0.792,0.026 -1.648,0.047 -2.562,0.063 -0.916,0.01 -2.303,0.02 -4.164,0.02 -1.871,0 -3.276,-0.01 -4.213,-0.02 -0.937,-0.016 -1.814,-0.037 -2.634,-0.063" /></g><g
           transform="translate(781.5248,205.0034)"
           id="g108"><path
             id="path110"
             style="fill:#b48650;fill-opacity:1;fill-rule:nonzero;stroke:none"
             d="m 0,0 v -1.253 c -1.188,-0.724 -2.425,-1.262 -3.711,-1.62 -1.284,-0.357 -2.624,-0.533 -4.019,-0.533 -3.349,0 -5.942,0.942 -7.782,2.831 -1.837,1.884 -2.756,4.545 -2.756,7.976 0,3.706 1.025,6.47 3.074,8.292 2.05,1.827 5.168,2.738 9.35,2.738 0.888,0 1.866,-0.062 2.933,-0.191 1.066,-0.135 2.386,-0.363 3.956,-0.689 l -1.433,-6.749 h -1.253 c 0.016,0.155 0.024,0.316 0.031,0.486 0.008,0.171 0.011,0.425 0.011,0.766 0,1.667 -0.259,2.899 -0.779,3.691 -0.52,0.792 -1.325,1.19 -2.42,1.19 -1.599,0 -2.787,-0.807 -3.566,-2.427 -0.782,-1.62 -1.17,-4.094 -1.17,-7.417 0,-2.759 0.425,-4.834 1.271,-6.221 0.849,-1.388 2.112,-2.081 3.794,-2.081 0.654,0 1.353,0.098 2.091,0.295 C -1.641,-0.714 -0.846,-0.409 0,0" /></g><g
           transform="translate(801.6535,214.9668)"
           id="g112"><path
             id="path114"
             style="fill:#b48650;fill-opacity:1;fill-rule:nonzero;stroke:none"
             d="m 0,0 c 0,0.166 0.008,0.409 0.021,0.74 0.015,0.326 0.02,0.564 0.02,0.714 0,1.941 -0.204,3.323 -0.613,4.146 -0.411,0.818 -1.087,1.227 -2.031,1.227 -1.217,0 -2.084,-0.45 -2.604,-1.351 -0.52,-0.901 -0.779,-2.448 -0.779,-4.638 0,-0.351 0.011,-0.76 0.031,-1.216 0.021,-0.46 0.052,-0.973 0.091,-1.547 z m -5.781,-3.323 c 0.028,-2.526 0.582,-4.456 1.661,-5.781 1.079,-1.325 2.624,-1.988 4.635,-1.988 0.859,0 1.744,0.155 2.655,0.461 0.909,0.305 1.84,0.771 2.798,1.382 v -1.558 c -1.545,-0.859 -3.147,-1.501 -4.809,-1.926 -1.661,-0.424 -3.426,-0.636 -5.3,-0.636 -3.473,0 -6.224,0.983 -8.252,2.955 -2.029,1.967 -3.046,4.638 -3.046,8.018 0,3.442 1.18,6.112 3.537,8.017 2.358,1.899 5.67,2.847 9.935,2.847 3.02,0 5.311,-0.585 6.868,-1.755 C 6.459,5.548 7.238,3.82 7.238,1.537 7.238,1.294 7.213,0.875 7.158,0.29 V 0.166 C 5.176,-0.326 3.113,-0.864 0.976,-1.444 -1.165,-2.029 -3.416,-2.65 -5.781,-3.323" /></g><g
           transform="translate(297.5334,258.0089)"
           id="g116"><path
             id="path118"
             style="fill:#b48650;fill-opacity:1;fill-rule:nonzero;stroke:none"
             d="m 0,0 c -0.016,0.678 -0.098,1.341 -0.248,1.988 -0.153,0.646 -0.477,1.713 -0.973,3.188 -0.497,1.475 -0.803,2.655 -0.911,3.54 -0.112,0.885 0,1.537 0.331,1.967 0.331,0.429 0.869,0.74 1.615,0.932 0.745,0.191 1.64,-0.099 2.691,-0.87 C 3.83,9.725 4.601,8.219 4.824,6.232 L 4.907,3.375 C 4.933,2.603 5.015,1.858 5.155,1.139 l 0.58,-3.354 3.23,0.497 c 0.054,1.05 0.124,2.324 0.207,3.83 C 9.254,3.618 9.239,6.19 9.13,9.834 L 8.965,14.679 C 7.694,14.487 6.452,14.239 5.238,13.933 4.022,13.628 2.932,13.452 1.967,13.395 c -0.968,-0.057 -2.091,0.533 -3.375,1.76 -1.283,1.226 -1.892,2.355 -1.822,3.374 0.068,1.02 0.489,1.719 1.263,2.091 0.771,0.373 2.001,0.668 3.685,0.891 l 3.396,0.786 3.643,0.746 c 0.192,0.885 0.249,1.408 0.166,1.573 l -0.58,1.367 C 6.547,25.377 5.127,25.341 4.079,25.879 3.028,26.417 2.083,27.385 1.242,28.778 0.399,30.17 0.021,31.133 0.104,31.655 c 0.082,0.803 0.522,1.403 1.325,1.801 0.799,0.399 1.925,0.637 3.374,0.704 1.449,0.068 3.408,0.295 5.88,0.684 2.469,0.388 4.56,0.833 6.273,1.345 1.711,0.513 2.841,0.808 3.395,0.891 1.048,0.108 1.864,0.015 2.443,-0.29 0.58,-0.306 1.118,-0.787 1.615,-1.45 0.497,-0.662 0.771,-1.216 0.828,-1.656 0.166,-1.796 -0.429,-2.79 -1.78,-2.981 l -6.542,-2.319 c 0.716,-0.745 1.102,-1.201 1.159,-1.366 l 0.662,-1.822 c 2.154,0.471 3.988,0.683 5.508,0.642 1.516,-0.042 2.662,-0.471 3.436,-1.284 0.771,-0.813 1.152,-1.817 1.139,-3.002 -0.016,-1.185 -0.906,-2.112 -2.671,-2.774 l -5.88,-1.035 -1.532,-0.332 C 18.654,14.953 18.584,12.924 18.529,11.325 18.472,9.725 18.418,8.421 18.364,7.412 18.307,6.402 18.115,3.664 17.784,-0.807 l 3.395,0.538 c 0.717,2.427 1.165,4.115 1.346,5.051 0.179,0.937 0.386,2.283 0.621,4.038 0.233,1.754 0.303,3.395 0.207,4.927 -0.098,1.532 -0.119,2.381 -0.062,2.546 0.331,1.491 1.408,1.838 3.23,1.036 1.765,-0.803 3.023,-1.657 3.768,-2.568 0.745,-0.911 1.118,-2.044 1.118,-3.395 -0.029,-0.688 -0.285,-1.739 -0.766,-3.147 -0.484,-1.408 -1.263,-4.14 -2.34,-8.198 0.854,0.057 1.579,0.088 2.174,0.103 0.593,0.016 1.408,0.109 2.443,0.29 1.035,0.181 2.029,0.274 2.981,0.29 0.953,0.015 1.897,-0.419 2.837,-1.304 0.385,-0.414 0.911,-1.268 1.573,-2.568 0.663,-1.299 0.937,-2.318 0.828,-3.064 -0.305,-2.013 -2.14,-2.955 -5.507,-2.815 l -4.389,0.248 c -1.547,0.057 -3.121,0.083 -4.72,0.083 -1.299,-0.026 -4.969,-0.233 -11.014,-0.621 -6.046,-0.388 -9.883,-0.699 -11.511,-0.932 -1.631,-0.233 -3.445,-0.678 -5.445,-1.325 -2.003,-0.647 -3.437,-1.061 -4.307,-1.242 -0.869,-0.181 -1.808,0 -2.815,0.538 -1.009,0.539 -1.631,1.165 -1.863,1.884 -0.236,0.72 -0.298,1.755 -0.187,3.106 0.055,1.019 0.212,1.734 0.476,2.132 0.262,0.399 0.834,0.74 1.719,1.015 l 3.022,0.414 4.058,0.952 1.242,0.166 C -0.021,-1.553 0.013,-0.678 0,0 m -20.931,20.807 c -0.194,0.357 -0.29,0.657 -0.29,0.89 0,0.233 0.544,0.751 1.636,1.553 1.089,0.802 2.137,1.641 3.147,2.526 1.006,0.885 2.691,2.51 5.051,4.886 2.36,2.375 4.063,4.14 5.114,5.3 1.048,1.159 2.973,3.638 5.776,7.432 2.8,3.794 4.845,6.796 6.128,9.006 1.284,2.21 2.104,4.135 2.464,5.776 0.357,1.641 0.792,2.717 1.304,3.23 0.51,0.512 1.512,0.683 3.002,0.517 0.717,-0.108 1.276,-0.289 1.677,-0.538 0.399,-0.248 1.16,-1.195 2.278,-2.836 1.118,-1.641 3.077,-3.54 5.879,-5.694 2.8,-2.153 5.016,-3.742 6.646,-4.761 1.628,-1.02 4.865,-2.588 9.71,-4.7 4.844,-2.112 8.307,-3.478 10.393,-4.099 2.083,-0.621 3.519,-1.113 4.306,-1.47 0.787,-0.357 1.193,-0.72 1.222,-1.077 0.026,-0.357 -0.414,-0.729 -1.325,-1.118 -0.306,-0.139 -0.947,-0.264 -1.926,-0.372 -0.981,-0.109 -1.671,-0.311 -2.07,-0.601 -0.401,-0.29 -1.051,-1.206 -1.946,-2.753 -0.898,-1.548 -1.995,-2.511 -3.292,-2.899 -1.105,-0.331 -2.852,-0.062 -5.238,0.808 -2.389,0.869 -4.342,1.713 -5.859,2.526 -1.519,0.812 -3.804,2.551 -6.853,5.217 -3.051,2.665 -5.266,4.642 -6.645,5.942 l -3.272,3.105 -2.525,2.36 C 10.357,44.574 7.632,41.091 5.383,38.508 3.131,35.925 1.289,34.062 -0.145,32.918 c -1.436,-1.144 -3.631,-2.759 -6.584,-4.844 -2.955,-2.086 -5.08,-3.504 -6.376,-4.265 -1.299,-0.761 -3.908,-1.76 -7.826,-3.002" /></g><g
           transform="translate(400.2759,299.1877)"
           id="g120"><path
             id="path122"
             style="fill:#b48650;fill-opacity:1;fill-rule:nonzero;stroke:none"
             d="m 0,0 0.29,-4.596 c 2.427,0.554 4.327,0.916 5.693,1.097 1.367,0.181 2.236,0.456 2.609,0.828 0.373,0.373 0.655,1.03 0.849,1.967 L 10.062,2.36 C 8.488,2.003 6.742,1.573 4.824,1.077 2.904,0.58 1.297,0.223 0,0 m 1.366,-17.929 c 0.026,1.133 0.026,2.21 0,3.23 -0.028,1.019 0.213,2.008 0.725,2.96 0.51,0.953 2.076,1.098 4.7,0.435 L 7.37,-8.281 C 5.023,-8.887 2.829,-9.332 0.787,-9.606 c 0,-0.663 -0.112,-1.237 -0.332,-1.719 -0.222,-0.481 -0.877,-0.781 -1.966,-0.89 -1.092,-0.109 -2.078,0.223 -2.961,0.994 -0.802,0.662 -1.428,1.656 -1.884,2.981 -0.455,1.325 -0.89,3.007 -1.304,5.052 -0.414,2.044 -0.699,3.788 -0.849,5.238 -0.153,1.449 -0.277,3.069 -0.373,4.865 -0.098,1.796 -0.152,3.297 -0.165,4.513 -0.016,1.217 0.261,2.428 0.828,3.644 0.564,1.216 1.992,1.009 4.285,-0.621 2.511,-1.822 3.768,-3.602 3.768,-5.342 L 0,6.294 c 3.284,0.58 5.458,0.75 6.522,0.517 1.061,-0.233 1.801,-0.626 2.215,-1.18 l 1.656,-1.987 c 0.192,1.516 0.393,2.878 0.6,4.078 0.207,1.201 0.352,2.117 0.435,2.754 0.083,0.636 -0.028,1.159 -0.331,1.573 -0.305,0.414 -1.395,0.275 -3.271,-0.414 -1.491,-0.554 -2.671,-0.937 -3.54,-1.159 -0.87,-0.223 -1.76,-0.186 -2.671,0.103 -0.911,0.29 -1.726,0.979 -2.443,2.071 -0.72,1.092 -0.885,1.884 -0.497,2.381 0.192,0.248 0.717,0.44 1.573,0.579 l 3.975,0.497 c 2.788,0.357 4.969,0.937 6.543,1.739 l 1.987,1.035 c 0.746,0.306 1.449,0.456 2.112,0.456 0.828,-0.057 1.545,-0.29 2.153,-0.704 0.606,-0.414 1.524,-1.325 2.754,-2.733 1.226,-1.408 2.075,-2.417 2.546,-3.023 0.469,-0.605 0.758,-1.299 0.87,-2.07 0.108,-0.771 -0.207,-2.029 -0.953,-3.768 -0.083,-0.191 -1.05,-2.583 -2.898,-7.163 -1.85,-4.581 -3.3,-7.572 -4.348,-8.965 -1.051,-1.392 -2.003,-2.189 -2.857,-2.381 l -3.064,-0.952 c 1.185,-0.937 1.793,-1.491 1.822,-1.656 l 0.497,-2.195 c 3.173,0.44 5.258,0.533 6.252,0.269 0.994,-0.264 1.98,-0.833 2.961,-1.718 0.978,-0.885 1.433,-1.822 1.366,-2.816 -0.07,-0.993 -0.699,-1.806 -1.884,-2.443 l -3.602,-0.621 -5.093,-0.952 c -0.083,-1.325 -0.14,-2.138 -0.166,-2.443 l -0.165,-1.656 c 1.682,0.471 3.18,0.678 4.492,0.621 1.31,-0.057 2.526,-0.813 3.644,-2.278 1.118,-1.464 1.475,-2.489 1.077,-3.084 -0.402,-0.596 -1.222,-1.03 -2.464,-1.305 l -3.603,-0.745 -3.602,-0.787 c -0.111,-1.268 -0.166,-2.003 -0.166,-2.194 l -0.165,-2.816 c 6.791,0.357 11.048,0.678 12.774,0.952 1.723,0.275 2.849,0.414 3.374,0.414 2.291,-0.108 3.939,-0.885 4.948,-2.318 1.007,-1.434 1.628,-2.774 1.864,-4.017 0.233,-1.242 0.088,-2.106 -0.435,-2.588 -0.525,-0.481 -1.602,-0.657 -3.23,-0.517 -4.666,0.357 -8.434,0.579 -11.304,0.662 -4.611,0.083 -9.378,-0.186 -14.306,-0.807 -4.927,-0.621 -8.372,-1.206 -10.331,-1.76 l -6.418,-2.112 c -1.519,-0.357 -2.707,-0.357 -3.561,0 -0.525,0.192 -1.705,1.165 -3.54,2.92 -1.837,1.754 -2.396,3.193 -1.677,4.327 0.22,0.331 1.421,0.729 3.603,1.2 2.179,0.471 5.52,1.01 10.02,1.615 4.498,0.606 7.52,0.994 9.068,1.16 v 1.904 2.567 c -3.038,-0.471 -4.72,-0.688 -5.052,-0.662 -1.133,0 -2.326,0.274 -3.581,0.828 -1.258,0.554 -2.05,1.216 -2.381,1.988 -0.331,0.771 -0.153,1.532 0.538,2.277 0.414,0.471 3.947,1.382 10.6,2.733 v 2.153 2.236 c -1.465,-0.166 -2.712,-0.14 -3.747,0.083 -1.035,0.222 -1.817,0.704 -2.34,1.449 l -1.035,1.284 c -2.541,-2.899 -4.14,-4.638 -4.803,-5.218 -0.662,-0.579 -2.169,-1.692 -4.513,-3.333 -2.347,-1.641 -4.087,-2.676 -5.217,-3.105 -1.134,-0.43 -1.776,-0.565 -1.926,-0.414 -0.153,0.15 0.158,0.807 0.932,1.966 0.911,1.299 2.567,4.1 4.969,8.406 2.401,4.306 3.781,6.951 4.14,7.929 0.357,0.978 0.634,2.153 0.828,3.52 0.192,1.366 0.51,2.215 0.953,2.546 0.44,0.332 1.503,0.026 3.188,-0.911 1.131,-0.662 2.013,-1.449 2.65,-2.36 0.634,-0.911 0.883,-1.698 0.745,-2.36 l -0.331,-2.65 c 1.848,0.388 3.727,0.828 5.631,1.325" /></g><g
           transform="translate(508.8361,264.9859)"
           id="g124"><path
             id="path126"
             style="fill:#b48650;fill-opacity:1;fill-rule:nonzero;stroke:none"
             d="m 0,0 c 1.988,0.58 5.272,1.698 9.855,3.354 0.026,3.478 0.096,6.558 0.207,9.234 0.108,2.675 0.15,4.239 0.124,4.679 L 9.938,21.573 C 7.425,20.553 4.803,19.653 2.07,18.881 L 1.615,15.196 c 1.019,0.331 1.91,0.575 2.671,0.725 0.758,0.15 1.648,0.098 2.67,-0.166 C 7.976,15.491 8.53,15.072 8.613,14.492 8.695,13.913 8.55,13.395 8.178,12.94 7.805,12.484 7.453,12.199 7.122,12.091 6.791,11.982 5.673,11.801 3.768,11.552 L 1.077,11.221 0.787,8.654 C 1.615,8.82 2.394,9.006 3.126,9.213 3.856,9.42 4.389,9.549 4.72,9.606 5.574,9.663 6.32,9.503 6.956,9.13 7.59,8.758 8.033,8.173 8.281,7.37 8.53,6.568 8.17,5.797 7.205,5.052 L 3.602,4.513 0.331,3.851 Z m -5.631,44.139 c -1.879,0.057 -3.66,0.223 -5.342,0.497 0.166,-1.159 0.311,-2.132 0.435,-2.919 0.124,-0.787 0.22,-1.677 0.29,-2.671 0.067,-0.993 -0.174,-2.65 -0.725,-4.968 -0.525,-2.179 -1.201,-3.753 -2.029,-4.721 -0.828,-0.968 -1.697,-1.47 -2.608,-1.511 -0.911,-0.041 -1.644,0.347 -2.195,1.159 -0.554,0.813 -0.704,2.05 -0.455,3.706 0.108,0.828 0.372,2.402 0.786,4.721 0.414,2.318 0.634,4.057 0.663,5.217 v 1.159 c 0.026,1.631 0.398,2.635 1.118,3.023 0.994,0.523 2.414,0.067 4.265,-1.367 1.268,1.765 2.236,2.707 2.898,2.816 l 4.017,1.077 c -0.306,0.522 -0.608,1.092 -0.911,1.697 -0.306,0.606 -0.464,1.424 -0.476,2.443 -0.016,1.02 0.654,1.641 2.008,1.864 1.351,0.222 2.932,-0.13 4.741,-1.056 1.806,-0.927 2.891,-1.693 3.25,-2.298 L 5.3,50.143 c 2.65,0.083 5.222,0.13 7.722,0.145 2.498,0.016 4.229,0.047 5.197,0.104 1.076,0.937 1.987,1.278 2.733,1.014 0.745,-0.264 1.532,-1.076 2.36,-2.443 0.828,-1.366 1.227,-2.588 1.201,-3.664 -0.057,-0.689 -0.347,-1.594 -0.87,-2.712 -0.525,-1.118 -1.064,-1.765 -1.615,-1.946 -0.554,-0.182 -1.201,-0.021 -1.946,0.476 l -1.573,1.242 c -0.691,0.388 -1.685,0.554 -2.982,0.497 -0.496,-0.026 -1.18,-0.202 -2.049,-0.518 -0.87,-0.316 -1.395,-0.419 -1.574,-0.31 -0.181,0.108 -0.31,0.274 -0.393,0.497 -0.083,0.222 0.062,0.476 0.435,0.766 0.372,0.289 1.884,1.469 4.534,3.54 -3.204,0.165 -5.549,0.222 -7.039,0.165 C 6.597,46.831 1.573,45.878 -5.631,44.139 M -0.455,26.376 0,31.386 C -0.885,30.75 -1.755,30.206 -2.609,29.751 -3.465,29.295 -3.991,28.897 -4.182,28.55 -4.376,28.203 -4.508,27.613 -4.575,26.769 -4.645,25.926 -4.852,24.968 -5.197,23.892 -5.543,22.815 -6.164,22.158 -7.06,21.925 -7.958,21.692 -8.641,21.64 -9.109,21.78 c -0.72,0.165 -1.403,0.647 -2.05,1.449 -0.65,0.802 -0.96,1.765 -0.932,2.899 l 0.704,3.188 c 0.386,1.961 0.779,3.121 1.18,3.478 0.399,0.357 0.932,0.523 1.594,0.497 0.689,-0.057 1.38,-0.435 2.071,-1.139 0.688,-0.704 1.159,-1.071 1.408,-1.097 0.191,-0.026 0.675,0.15 1.449,0.538 l 1.739,0.663 2.112,0.869 0.331,2.609 c -1.436,-0.523 -2.521,-0.704 -3.251,-0.538 -0.732,0.165 -1.423,0.683 -2.07,1.552 -0.649,0.87 -0.932,1.62 -0.849,2.257 0.083,0.885 0.482,1.496 1.201,1.843 0.717,0.346 1.599,0.543 2.65,0.6 1.048,0.057 3.098,0.398 6.149,1.035 3.049,0.637 4.87,0.621 5.466,-0.041 0.592,-0.663 0.874,-1.424 0.848,-2.278 C 10.585,39.253 10.282,38.57 9.731,38.115 9.177,37.659 8.033,37.209 6.294,36.769 6.154,35.636 6.087,35.004 6.087,34.864 L 5.963,31.842 c 1.627,1.63 2.87,2.976 3.726,4.037 0.854,1.061 1.739,2.013 2.65,2.857 0.911,0.843 1.884,0.75 2.919,-0.269 1.035,-1.02 1.421,-2.024 1.16,-3.002 -0.264,-0.979 -0.906,-1.941 -1.926,-2.878 L 11.47,29.854 9.027,27.577 4.72,23.685 c 1.711,0.553 3.422,1.159 5.135,1.821 0.44,0.663 0.861,1.134 1.263,1.408 0.398,0.275 0.89,0.414 1.47,0.414 1.516,-0.082 2.82,-1.138 3.912,-3.167 1.09,-2.029 1.802,-3.587 2.133,-4.679 0.331,-1.092 0.44,-3.044 0.331,-5.859 C 18.77,9.482 18.646,6.128 18.592,3.561 18.535,0.994 18.467,-0.906 18.385,-2.132 c -0.083,-1.227 -0.29,-2.05 -0.622,-2.464 l -2.691,-4.017 c 3.064,-2.65 5.057,-4.596 5.983,-5.838 0.924,-1.242 1.434,-2.583 1.532,-4.016 0.096,-1.434 -0.284,-2.48 -1.138,-3.127 -0.857,-0.646 -1.574,-0.957 -2.154,-0.931 -0.636,0 -1.526,0.45 -2.67,1.346 -1.147,0.895 -2.112,1.801 -2.899,2.712 -0.786,0.911 -1.967,2.36 -3.54,4.347 -1.573,1.988 -2.795,3.603 -3.664,4.845 -0.87,1.242 -1.168,2.044 -0.891,2.402 0.22,0.305 1.367,0.372 3.437,0.207 v 4.471 L 5.466,-3.892 C 4.084,-5.906 2.849,-7.619 1.76,-9.027 c -1.092,-1.407 -2.402,-2.815 -3.934,-4.223 -1.532,-1.408 -3.167,-2.733 -4.907,-3.975 -1.739,-1.242 -2.934,-2.112 -3.581,-2.609 -0.65,-0.497 -1.292,-0.828 -1.926,-0.993 -0.636,-0.166 -1.063,-0.151 -1.283,0.041 -0.223,0.191 0.108,0.828 0.994,1.905 l 2.691,3.229 3.892,4.969 3.313,4.099 c -1.519,-0.579 -3.486,-1.537 -5.901,-2.877 -2.417,-1.341 -3.527,-0.808 -3.333,1.594 0.192,2.401 0.476,3.773 0.849,4.12 0.373,0.346 0.932,0.642 1.677,0.89 l 2.981,0.787 2.65,0.952 c 0.083,2.51 0.158,4.513 0.228,6.004 0.067,1.491 0.158,2.976 0.269,4.451 0.109,1.475 0.261,2.919 0.456,4.327 l 0.455,3.437 c -1.022,-0.828 -1.781,-1.434 -2.277,-1.822 -0.497,-0.388 -2.141,-1.516 -4.928,-3.395 l -5.176,-3.52 c -0.939,-0.605 -1.78,-1.102 -2.525,-1.49 l -2.857,-1.491 c -1.408,-0.854 -2.472,-1.325 -3.189,-1.408 -0.719,-0.083 -1.188,-0.015 -1.408,0.207 -0.222,0.223 0.109,0.72 0.994,1.491 0.883,0.771 1.843,1.661 2.878,2.67 1.035,1.01 1.793,1.719 2.277,2.133 0.482,0.414 1.4,1.164 2.754,2.257 1.351,1.092 3.664,3.027 6.935,5.817 3.272,2.79 6.175,5.399 8.717,7.826 m -35.486,-8.902 4.803,-2.278 c 0.883,2.485 1.905,5.285 3.064,8.406 l -3.975,0.869 c -0.553,-1.102 -0.931,-1.837 -1.138,-2.194 -0.207,-0.357 -0.575,-0.968 -1.098,-1.822 -0.525,-0.854 -1.076,-1.848 -1.656,-2.981 m -2.94,-3.975 c -1.353,-1.714 -2.471,-2.914 -3.354,-3.603 -0.885,-0.688 -1.705,-1.113 -2.463,-1.263 -0.761,-0.15 -1.217,-0.186 -1.367,-0.103 -0.152,0.083 -0.215,0.347 -0.186,0.786 0,0.471 0.22,1.072 0.662,1.802 0.44,0.729 1.036,1.966 1.781,3.706 l 5.176,10.31 2.111,5.341 1.864,4.431 c -1.051,0.057 -1.864,0.357 -2.443,0.911 l -2.278,2.608 c -0.802,0.854 -1.374,1.636 -1.718,2.34 -0.347,0.704 -0.298,1.444 0.145,2.215 0.331,0.606 1.214,1.061 2.65,1.366 l 8.033,0.58 3.726,0.538 c 1.297,0.166 2.581,0.264 3.851,0.29 1.268,0 2.366,-0.264 3.292,-0.786 0.924,-0.523 1.372,-1.269 1.346,-2.236 l 0.248,-3.147 -1.325,-1.201 c -1.961,-0.606 -4.306,-1.175 -7.039,-1.698 -0.331,-0.745 -0.691,-1.589 -1.077,-2.526 -0.388,-0.936 -0.926,-2.111 -1.614,-3.519 0.44,-0.057 0.993,-0.145 1.656,-0.269 0.662,-0.125 1.061,-0.171 1.201,-0.145 l 1.904,1.035 c 0.634,0.305 1.201,0.373 1.698,0.207 0.331,-0.14 0.958,-0.89 1.884,-2.257 0.924,-1.366 1.429,-2.919 1.511,-4.658 0.026,-1.216 -0.856,-3.783 -2.65,-7.702 l -3.188,-6.625 c 0.249,-0.885 0.419,-1.827 0.518,-2.836 0.095,-1.009 -0.381,-2.127 -1.429,-3.354 -1.051,-1.227 -1.822,-1.801 -2.319,-1.718 l -1.532,0.083 c -1.63,-2.128 -3.017,-3.831 -4.161,-5.114 -1.146,-1.284 -3.01,-3.08 -5.59,-5.383 -2.583,-2.303 -4.425,-3.535 -5.528,-3.685 -1.105,-0.15 -1.754,-0.15 -1.946,0 -0.194,0.15 -0.264,0.476 -0.207,0.973 0.055,0.497 0.709,1.382 1.967,2.65 1.255,1.268 2.614,2.96 4.079,5.072 1.462,2.112 3.504,5.544 6.128,10.29 -1.408,2.427 -2.749,4.529 -4.017,6.294" /></g><g
           transform="translate(612.9218,287.7181)"
           id="g128"><path
             id="path130"
             style="fill:#b48650;fill-opacity:1;fill-rule:nonzero;stroke:none"
             d="M 0,0 C 0.468,1.491 1.201,2.195 2.195,2.112 3.188,2.029 4.099,1.858 4.927,1.594 5.755,1.33 6.493,1.014 7.143,0.642 7.79,0.269 8.625,-0.538 9.648,-1.78 c 1.019,-1.243 1.516,-2.459 1.49,-3.644 -0.057,-1.134 -0.45,-2.029 -1.18,-2.692 C 9.226,-8.778 8.39,-9.172 7.453,-9.296 6.514,-9.42 5.548,-9.109 4.555,-8.364 3.892,-7.924 3.098,-6.951 2.174,-5.445 1.247,-3.939 0.634,-2.712 0.331,-1.76 0.026,-0.807 -0.083,-0.223 0,0 m -10.559,-15.196 c -0.277,0.44 -0.484,0.73 -0.621,0.869 l -4.72,-1.2 c -0.911,-0.166 -1.354,-0.249 -1.325,-0.249 v -2.194 c 2.262,0.828 4.485,1.754 6.666,2.774 m -20.289,-15.486 c 2.373,-2.179 3.781,-3.059 4.224,-2.63 0.44,0.43 0.662,1.553 0.662,3.375 v 2.816 c -1.822,-1.299 -3.452,-2.485 -4.886,-3.561 m 14.41,37.887 c -2.016,-0.249 -3.825,-0.637 -5.425,-1.16 -1.602,-0.522 -2.707,-0.719 -3.312,-0.579 -0.885,0.139 -1.403,0.346 -1.553,0.621 -0.153,0.274 -0.331,0.786 -0.538,1.532 -0.207,0.745 -0.298,1.185 -0.269,1.325 0.054,0.357 0.468,0.719 1.242,1.076 l 9.068,1.367 c 0.662,0.191 0.994,0.357 0.994,0.497 l 0.165,2.07 c -1.961,-0.331 -3.858,-0.725 -5.693,-1.18 -1.838,-0.456 -3.155,-0.616 -3.954,-0.476 -0.994,0.14 -1.851,0.538 -2.568,1.201 -0.719,0.662 -1.035,1.325 -0.952,1.987 0.054,0.58 0.261,0.973 0.621,1.18 0.357,0.207 1.255,0.409 2.692,0.601 l 2.567,0.662 1.408,0.166 c -0.415,0.936 -0.679,1.656 -0.787,2.153 l -0.787,3.437 c -0.58,1.821 -0.704,3.141 -0.373,3.954 0.332,0.812 1.325,1.195 2.982,1.139 0.551,-0.026 1.413,-0.415 2.588,-1.16 1.172,-0.745 1.827,-1.118 1.966,-1.118 l 2.94,0.994 c 1.574,0.497 2.518,0.725 2.837,0.683 0.315,-0.041 0.489,-0.191 0.517,-0.455 0.026,-0.264 -0.222,-0.544 -0.745,-0.849 -1.713,-0.937 -2.968,-1.843 -3.768,-2.712 -0.802,-0.87 -1.077,-1.745 -0.828,-2.63 l 0.372,-2.029 c 2.676,0.275 5.259,0.772 7.743,1.491 0.746,1.103 1.45,2.407 2.112,3.913 0.663,1.506 1.061,2.645 1.201,3.416 l 0.166,2.526 c 0.025,0.688 0.165,1.159 0.414,1.408 0.248,0.248 0.924,0.29 2.029,0.124 C 0.399,32.049 1.76,31.567 2.712,30.931 3.664,30.294 4.34,29.507 4.741,28.57 5.14,27.634 5.259,26.93 5.093,26.459 4.927,25.988 4.257,25.429 3.085,24.782 1.91,24.135 1.214,23.685 0.994,23.436 l -1.822,-1.822 c 1.765,0.44 3.131,0.616 4.099,0.518 C 4.236,22.033 5.077,21.65 5.797,20.972 6.514,20.294 6.77,19.58 6.563,18.819 6.356,18.058 5.065,17.582 2.691,17.391 l -3.809,-0.29 -5.755,-0.58 c -0.249,-0.937 -0.36,-1.516 -0.332,-1.739 l 0.042,-1.159 c 1.93,0.331 3.677,0.523 5.238,0.579 1.558,0.057 2.58,-0.377 3.064,-1.304 C 1.62,11.972 1.711,11.299 1.408,10.869 1.102,10.44 0.523,10.16 -0.331,10.02 L -2.65,9.772 -6.956,8.944 C -7.316,8.695 -7.515,8.53 -7.557,8.447 -7.598,8.364 -7.634,8.142 -7.66,7.784 L -7.784,6.459 c 1.765,0.057 3.338,0.202 4.72,0.435 1.379,0.233 2.477,0.456 3.292,0.663 C 1.04,7.764 1.573,7.893 1.822,7.95 2.704,8.059 3.719,7.966 4.865,7.66 6.009,7.355 6.879,6.961 7.474,6.48 8.067,5.999 8.364,5.466 8.364,4.886 8.336,4.032 7.176,3.421 4.886,3.064 L 0,2.609 -4.348,2.029 -9.109,1.739 c -1.023,-0.109 -3.686,-0.533 -7.992,-1.263 -4.306,-0.73 -7.316,-1.304 -9.027,-1.718 -1.713,-0.414 -2.802,-0.637 -3.271,-0.663 -1.878,-0.139 -3.043,0.264 -3.499,1.201 -0.455,0.937 -0.703,1.698 -0.745,2.277 -0.041,0.58 0.145,1.051 0.559,1.408 0.249,0.223 0.813,0.311 1.698,0.269 0.882,-0.041 3.271,0.202 7.163,0.725 l 5.052,0.58 2.691,0.621 z m -8.903,-15.693 c -1.022,-0.192 -2.057,-0.311 -3.105,-0.352 -1.051,-0.042 -1.921,-0.145 -2.609,-0.311 -0.691,-0.165 -1.221,-0.202 -1.594,-0.103 -0.373,0.098 -0.6,0.264 -0.683,0.497 -0.083,0.232 0.248,0.574 0.993,1.014 0.358,0.223 2.216,0.973 5.57,2.257 3.354,1.283 5.408,2.148 6.169,2.588 0.759,0.439 1.289,0.703 1.594,0.786 0.58,0.109 1.325,0 2.236,-0.331 0.911,-0.331 1.62,-0.994 2.133,-1.988 0.51,-0.993 0.585,-1.863 0.228,-2.608 -0.249,-0.497 -0.58,-0.813 -0.994,-0.952 l -1.325,-0.083 -1.822,-0.207 c 0.083,-0.192 0.15,-0.347 0.207,-0.456 l 0.166,-2.07 c 0.137,-0.192 0.895,-0.057 2.277,0.414 l 2.112,0.497 2.07,0.621 c -0.497,1.382 -0.836,2.484 -1.015,3.312 -0.181,0.829 -0.263,2.029 -0.248,3.603 0.013,1.573 0.373,2.588 1.077,3.043 0.703,0.456 1.545,0.492 2.525,0.104 0.979,-0.388 1.773,-0.953 2.381,-1.698 l 2.568,-5.838 0.579,-1.242 c 0.911,0.191 1.628,0.263 2.153,0.207 0.523,-0.057 1.131,-0.332 1.822,-0.829 0.689,-0.496 1.061,-0.957 1.118,-1.387 0.055,-0.429 0.055,-0.812 0,-1.159 -0.057,-0.347 -0.898,-0.709 -2.526,-1.097 l -1.946,-0.456 c 0.469,-1.216 0.883,-2.427 1.242,-3.644 0.883,1.186 1.869,2.397 2.961,3.623 1.09,1.227 2.27,1.786 3.54,1.677 0.771,-0.108 1.408,-0.439 1.905,-0.993 0.497,-0.554 0.828,-1.201 0.994,-1.946 0.385,-1.988 -0.554,-4.27 -2.816,-6.853 -2.264,-2.583 -3.382,-4.063 -3.354,-4.451 0,-0.358 0.518,-1.263 1.553,-2.713 1.035,-1.449 2.07,-2.696 3.105,-3.747 1.036,-1.051 1.856,-1.423 2.464,-1.118 0.166,0.083 0.456,0.373 0.87,0.87 l 1.407,1.573 c 0.275,0.388 0.606,0.932 0.994,1.636 0.386,0.704 0.8,1.221 1.242,1.552 0.44,0.332 0.808,0.44 1.098,0.332 0.29,-0.109 0.31,-0.663 0.062,-1.657 -0.111,-0.388 -0.43,-1.092 -0.953,-2.111 l -0.621,-1.242 c -0.885,-1.74 -1.34,-2.94 -1.366,-3.603 -0.029,-0.662 0.199,-1.454 0.683,-2.381 0.482,-0.926 0.808,-1.765 0.973,-2.525 0.166,-0.761 -0.476,-1.76 -1.925,-3.002 -1.449,-1.243 -3.499,-0.87 -6.149,1.118 -0.802,0.579 -2.065,1.656 -3.789,3.229 -1.726,1.574 -2.906,2.925 -3.54,4.058 l -2.857,4.431 c -2.402,-0.937 -4.26,-1.703 -5.569,-2.299 -1.312,-0.595 -2.402,-0.993 -3.271,-1.2 -0.87,-0.207 -1.437,-0.125 -1.698,0.248 -0.264,0.373 -0.111,0.885 0.455,1.532 0.565,0.647 1.165,1.392 1.802,2.236 0.634,0.844 1.49,1.951 2.567,3.333 1.076,1.382 2.055,2.749 2.94,4.1 -0.857,1.878 -1.341,3.105 -1.45,3.685 l -0.496,1.904 c -2.513,-1.961 -4.736,-3.519 -6.667,-4.678 -0.194,-1.103 -0.331,-2.009 -0.414,-2.713 -0.083,-0.703 -0.153,-1.925 -0.207,-3.664 -0.057,-1.739 -0.119,-3.245 -0.186,-4.513 -0.07,-1.268 -0.29,-2.697 -0.663,-4.286 -0.372,-1.589 -1.126,-2.634 -2.256,-3.147 -1.134,-0.512 -2.604,-0.916 -4.41,-1.221 -1.809,-0.306 -2.989,0.015 -3.54,0.952 -0.277,0.414 -0.228,1.056 0.144,1.925 0.373,0.87 0.544,1.429 0.518,1.677 -0.057,0.192 -0.38,0.678 -0.973,1.45 -0.595,0.771 -1.03,1.257 -1.304,1.449 l -1.822,1.283 c -1.299,-0.522 -2.244,-0.828 -2.837,-0.91 -0.595,-0.083 -1.112,0 -1.552,0.248 -0.637,0.688 -1.092,1.289 -1.367,1.801 -0.277,0.513 -0.401,1.279 -0.372,2.298 0,1.185 0.207,2.024 0.621,2.505 0.414,0.482 1.594,1.03 3.54,1.636 1.946,0.605 3.421,1.175 4.43,1.698 1.007,0.522 1.822,0.885 2.443,1.076 0.622,0.192 0.986,0.388 1.098,0.58 0.108,0.191 0.17,0.523 0.186,0.994 0.013,0.471 0.021,0.719 0.021,0.745 l -0.166,1.449 c -3.23,-1.573 -5.44,-2.609 -6.625,-3.105 -1.188,-0.497 -2.961,-0.782 -5.321,-0.849 -2.36,-0.068 -3.175,0.786 -2.443,2.567 0.73,1.78 2.104,3.017 4.12,3.706 l 2.526,0.911 5.921,1.739 2.153,0.745 z M -47.162,-40.91 c -0.637,0.414 -1.105,0.828 -1.408,1.243 -0.305,0.414 -0.678,1.123 -1.118,2.132 -0.442,1.009 -0.67,1.636 -0.683,1.884 -0.016,0.248 -0.008,0.523 0.021,0.828 v 1.408 c 0,0.414 0.22,1.553 0.662,3.416 0.44,1.863 0.751,3.685 0.932,5.466 0.178,1.78 0.336,3.524 0.476,5.238 l 0.787,12.463 0.869,8.695 0.083,2.319 c -1.436,-0.994 -2.541,-1.656 -3.312,-1.987 l -2.443,-1.036 c -2.348,-1.242 -3.784,-1.909 -4.307,-2.008 -0.525,-0.098 -0.869,-0.015 -1.035,0.249 -0.166,0.264 0.042,0.848 0.621,1.759 0.22,0.358 1.248,1.745 3.085,4.162 1.835,2.417 3.131,4.14 3.892,5.176 0.758,1.035 1.739,2.448 2.94,4.244 1.201,1.796 2.539,3.871 4.017,6.231 1.475,2.361 2.815,4.426 4.016,6.191 1.201,1.765 2.601,2.054 4.203,0.869 0.302,-0.248 0.766,-0.874 1.387,-1.884 0.621,-1.009 1.089,-1.992 1.408,-2.96 0.315,-0.968 0.53,-1.91 0.641,-2.837 0.109,-0.926 0.125,-1.635 0.042,-2.132 -0.223,-1.242 -1.333,-2.831 -3.333,-4.762 -2.003,-1.93 -3.9,-4.166 -5.694,-6.708 -0.057,-1.822 -0.132,-3.411 -0.228,-4.761 -0.098,-1.351 -0.455,-4.327 -1.076,-8.924 -0.621,-4.596 -0.96,-7.251 -1.015,-7.97 l -0.496,-9.731 c -0.36,-5.326 -0.534,-8.385 -0.518,-9.171 0.013,-0.787 0,-1.538 -0.041,-2.257 -0.042,-0.72 -0.174,-1.382 -0.394,-1.988 l -1.118,-3.147 c -0.608,-0.222 -1.229,-0.124 -1.863,0.29" /></g><g
           transform="translate(699.5779,281.0931)"
           id="g132"><path
             id="path134"
             style="fill:#b48650;fill-opacity:1;fill-rule:nonzero;stroke:none"
             d="m 0,0 c 0.911,-1.656 1.905,-3.338 2.981,-5.052 l 2.94,6.957 C 3.354,1.382 1.379,0.745 0,0 m -0.994,17.349 c 0.883,-0.165 1.703,-0.269 2.464,-0.31 0.758,-0.042 1.511,0.31 2.257,1.056 0.44,0.44 0.771,1.847 0.993,4.223 l 0.332,4.596 c -2.43,0.083 -3.851,0.068 -4.265,-0.041 l -4.721,-1.16 c -0.057,-1.904 -0.082,-3.007 -0.082,-3.312 l -0.166,-4.679 c 1.242,-0.083 2.303,-0.207 3.188,-0.373 m -2.401,-33.001 1.987,3.023 c -1.188,2.79 -1.863,4.456 -2.029,5.01 l -2.029,5.839 c -0.277,-4.829 -0.471,-7.769 -0.579,-8.82 l -0.787,-7.453 c 2.042,1.133 3.188,1.93 3.437,2.401 M -4.43,13.457 -4.886,8.902 -5.052,5.466 -2.857,4.306 c 1.351,0.357 2.386,0.606 3.105,0.746 L 3.892,5.673 6.584,6.294 C 6.858,6.899 7.176,7.365 7.536,7.681 7.893,7.997 8.53,8.162 9.441,8.178 10.352,8.193 11.345,7.469 12.422,6.004 13.499,4.539 14.05,3.271 14.078,2.195 14.104,1.118 13.83,-0.29 13.25,-2.029 12.67,-3.768 12.104,-5.191 11.552,-6.294 l -2.525,-5.3 c 2.87,-2.898 5.098,-4.963 6.687,-6.19 1.586,-1.227 3.209,-2.298 4.865,-3.209 l 3.685,-1.988 c 0.883,-0.522 1.31,-0.936 1.284,-1.242 -0.057,-0.305 -0.388,-0.564 -0.994,-0.787 l -4.141,-0.372 c -0.222,-0.14 -0.856,-0.927 -1.904,-2.36 -1.051,-1.434 -2.762,-2.029 -5.135,-1.781 -1.464,0.109 -3.03,0.813 -4.699,2.112 -1.672,1.299 -3.127,2.997 -4.369,5.093 l -1.863,3.023 c -2.099,-1.269 -3.685,-2.091 -4.762,-2.464 -1.076,-0.373 -2.567,-0.368 -4.472,0.021 -0.248,-2.236 -0.409,-3.872 -0.476,-4.907 -0.07,-1.035 -0.153,-2.572 -0.248,-4.617 -0.099,-2.044 -0.621,-3.483 -1.574,-4.327 -0.952,-0.844 -1.925,-1.139 -2.919,-0.89 -0.774,0.165 -1.553,0.828 -2.339,1.987 -0.787,1.16 -1.25,2.128 -1.387,2.899 -0.14,0.771 0,2.086 0.414,3.933 0.662,3.008 1.076,6.154 1.242,9.441 l 0.869,18.84 c 0.083,2.013 0.15,4.405 0.207,7.163 0.055,2.759 0.026,5.192 -0.082,7.288 -0.057,0.745 -0.228,2.676 -0.518,5.797 -0.29,3.121 -0.443,5.75 -0.455,7.888 -0.016,2.137 1.081,3.276 3.291,3.416 0.497,0.026 1.359,-0.223 2.588,-0.745 1.227,-0.523 2.241,-0.787 3.044,-0.787 0.496,-0.026 1.366,0.098 2.608,0.373 1.242,0.274 2.684,0.522 4.327,0.745 1.641,0.222 2.697,0.538 3.168,0.952 l 1.408,1.698 c 0.496,0.388 1.035,0.523 1.614,0.414 0.854,-0.192 1.972,-1.196 3.354,-3.002 1.38,-1.806 2.146,-3.38 2.298,-4.72 0.151,-1.341 -0.16,-3.831 -0.931,-7.474 -0.14,-0.554 -0.326,-1.532 -0.559,-2.94 C 11.917,15.279 11.635,14.156 11.304,13.312 10.973,12.469 10.414,11.656 9.627,10.869 8.84,10.082 7.598,9.208 5.9,8.24 4.203,7.272 2.953,6.92 2.153,7.184 1.351,7.448 0.854,7.872 0.662,8.468 0.468,9.063 0.489,9.689 0.725,10.352 c 0.233,0.662 0.364,1.123 0.393,1.387 0.026,0.264 -0.083,0.616 -0.331,1.056 -0.306,0.44 -1.035,1.019 -2.195,1.739 l -2.94,1.697 C -4.376,14.989 -4.405,14.063 -4.43,13.457 m -26.418,1.656 1.284,-1.532 v 12.298 c -1.768,-0.497 -3.548,-0.968 -5.342,-1.408 0.192,-2.013 0.29,-3.162 0.29,-3.436 l -0.165,-5.549 c 2.401,0.083 3.711,-0.041 3.933,-0.373 m 1.615,-13.912 c -0.111,2.955 -0.223,5.905 -0.331,8.861 -1.685,-0.58 -3.52,-1.16 -5.507,-1.739 -0.194,-2.402 -0.306,-3.851 -0.332,-4.348 l -0.331,-3.768 z m -7.329,-7.453 c -0.885,-3.396 -1.615,-6.051 -2.195,-7.971 -0.579,-1.92 -1.415,-4.374 -2.505,-7.371 -1.092,-2.996 -2.036,-5.113 -2.836,-6.355 -0.802,-1.243 -1.801,-2.5 -3.002,-3.768 -1.201,-1.268 -2.112,-2.324 -2.733,-3.168 -0.621,-0.844 -1.071,-1.201 -1.345,-1.077 -0.277,0.125 -0.471,0.44 -0.58,0.953 -0.111,0.512 0.207,1.454 0.952,2.836 0.303,0.554 0.746,1.806 1.325,3.768 l 1.242,3.81 c 0.828,2.567 1.732,6.33 2.713,11.283 0.978,4.953 1.635,8.762 1.966,11.428 0.332,2.666 0.559,5.01 0.684,7.039 0.124,2.029 0.253,4.891 0.393,8.592 0.137,4.115 0.041,7.515 -0.29,10.207 -0.331,2.691 -0.181,4.57 0.455,5.631 0.635,1.061 1.545,1.734 2.733,2.008 0.137,0.026 0.999,-0.041 2.588,-0.207 1.587,-0.165 4.009,-0.041 7.267,0.373 1.242,1.739 2.311,2.614 3.209,2.629 0.896,0.016 1.897,-0.409 3.002,-1.263 3.395,-2.707 5.259,-5.036 5.59,-6.997 0,-0.14 -0.202,-1.201 -0.6,-3.189 -0.402,-1.987 -0.588,-4.042 -0.559,-6.169 l -0.58,-10.186 c -0.057,-0.828 -0.07,-4.058 -0.042,-9.689 0,-5.466 0.166,-10.067 0.497,-13.81 0.332,-3.742 0.345,-6.299 0.042,-7.68 -0.526,-2.345 -1.361,-4.126 -2.505,-5.342 -1.147,-1.216 -2.671,-2.257 -4.576,-3.126 -1.904,-0.87 -3.167,-1.165 -3.788,-0.89 -0.622,0.274 -1.015,1.019 -1.181,2.236 -0.028,0.082 0.021,1.05 0.145,2.898 0.125,1.848 -0.352,3.587 -1.428,5.217 l -1.781,2.567 c -0.414,0.829 -0.305,1.351 0.332,1.574 0.302,0.109 1.076,-0.373 2.318,-1.449 1.243,-1.077 2.055,-1.47 2.443,-1.18 0.386,0.289 0.58,1.237 0.58,2.836 -0.028,0.854 -0.098,2.458 -0.207,4.803 -0.111,2.345 -0.153,4.208 -0.124,5.59 v 4.348 c -2.402,-0.523 -4.943,-1.103 -7.619,-1.739" /></g><g
           transform="translate(787.2692,285.3166)"
           id="g136"><path
             id="path138"
             style="fill:#b48650;fill-opacity:1;fill-rule:nonzero;stroke:none"
             d="m 0,0 c 2.153,-1.63 3.23,-3.049 3.23,-4.265 l 0.124,-2.07 2.153,0.455 1.698,3.147 c -0.554,0.44 -0.953,0.771 -1.201,0.994 L 3.975,-0.29 1.491,1.863 Z m -2.277,-26.624 c 0.688,-0.44 1.565,-1.01 2.629,-1.698 1.061,-0.688 1.827,-0.895 2.298,-0.621 0.386,0.165 0.704,0.766 0.952,1.801 0.249,1.035 0.456,2.422 0.621,4.161 0.166,1.739 0.407,3.81 0.725,6.211 0.316,2.402 0.502,3.867 0.559,4.389 l 0.166,2.443 -2.443,-1.035 c -1.408,-5.051 -2.355,-8.255 -2.837,-9.606 -0.484,-1.351 -1.374,-3.37 -2.67,-6.045 m 1.863,41.075 c 0.606,0.745 1.048,1.34 1.325,1.78 l 1.366,2.65 1.077,2.112 C 0.207,19.559 -1.382,18.799 -1.408,18.716 l -1.78,-2.485 c 0.965,-0.605 1.889,-1.2 2.774,-1.78 m -4.099,-21.283 -0.125,2.609 c -1.684,-1.382 -3.369,-2.526 -5.051,-3.437 1.434,-0.471 2.332,-0.689 2.691,-0.663 h 2.029 c 0.303,0.854 0.456,1.351 0.456,1.491 M -7.66,10.352 c -1.188,-0.554 -2.347,-1.201 -3.478,-1.946 0.745,-1.517 1.159,-2.713 1.242,-3.582 0.083,-0.87 -0.099,-1.713 -0.538,-2.526 -0.443,-0.813 -0.849,-1.263 -1.222,-1.346 -0.373,-0.082 -0.973,-0.077 -1.801,0.021 -0.828,0.098 -1.838,0.036 -3.023,-0.186 -1.188,-0.223 -1.933,-0.456 -2.236,-0.704 l -1.118,-0.87 c 0.137,-1.159 0.262,-2.231 0.373,-3.209 0.109,-0.978 0.166,-2.023 0.166,-3.126 v -1.987 c 1.545,0.936 2.758,1.759 3.643,2.463 0.883,0.704 2.332,2.19 4.348,4.451 2.013,2.262 3.38,3.934 4.099,5.011 l 2.899,4.265 c -1.051,1.076 -2.169,2.168 -3.354,3.271 m -14.451,-5.88 c 0.551,-0.72 1.076,-1.423 1.573,-2.112 0.828,0.937 1.297,1.532 1.408,1.781 l 1.118,2.111 c -1.436,-0.636 -2.803,-1.226 -4.099,-1.78 m -5.631,7.846 c -0.94,0.953 -1.802,2.154 -2.588,3.603 -0.787,1.449 0.24,2.158 3.085,2.132 1.019,-0.026 2.153,-0.347 3.395,-0.952 0.497,0.688 0.869,1.227 1.118,1.615 l 1.159,2.277 1.284,2.443 c -4.695,-1.351 -7.668,-2.36 -8.923,-3.023 -1.258,-0.662 -2.368,-0.952 -3.334,-0.869 -0.967,0.083 -1.568,0.538 -1.801,1.366 -0.235,0.828 -0.062,2.128 0.518,3.893 0.58,1.764 1.201,2.872 1.863,3.312 0.663,0.44 1.462,0.58 2.402,0.414 l 2.153,-0.787 c 0.44,-0.139 1.309,-0.139 2.609,0 l 2.608,0.166 c 0.937,0.057 1.599,0.207 1.988,0.455 l 1.573,2.112 c 1.103,1.465 2.443,1.641 4.016,0.538 0.469,-0.357 1.214,-1.304 2.236,-2.836 1.02,-1.532 1.628,-2.51 1.822,-2.94 0.192,-0.429 0.249,-0.792 0.166,-1.097 -0.083,-0.223 -0.463,-0.559 -1.139,-1.014 -0.678,-0.456 -1.684,-1.527 -3.022,-3.209 -1.341,-1.683 -3.321,-3.504 -5.942,-5.466 0.688,-1.077 1.089,-1.739 1.201,-1.988 l 0.662,-1.78 c 0.414,0.885 0.82,1.485 1.222,1.801 0.398,0.316 0.936,0.497 1.614,0.538 0.676,0.042 1.579,-0.409 2.713,-1.345 0.799,0.828 1.573,1.754 2.318,2.774 -0.194,0.58 -0.227,1.159 -0.103,1.739 0.124,0.58 0.724,0.771 1.801,0.58 0.523,0.911 1.165,2.339 1.925,4.285 0.759,1.946 1.413,3.566 1.967,4.866 0.551,1.299 0.841,2.401 0.87,3.312 v 3.768 c 0.44,1.325 1.288,1.765 2.546,1.325 1.255,-0.44 2.291,-1.382 3.106,-2.816 0.812,-1.433 1.18,-2.458 1.097,-3.064 L 2.195,25.631 c 0.662,0.026 1.213,0.088 1.656,0.186 0.44,0.098 0.841,0.29 1.201,0.58 0.357,0.29 0.709,0.864 1.055,1.718 0.345,0.854 0.655,1.434 0.932,1.739 0.274,0.305 0.779,0.476 1.511,0.518 0.73,0.041 1.538,-0.337 2.423,-1.139 0.882,-0.802 1.4,-1.827 1.553,-3.085 0.15,-1.257 0.005,-2.562 -0.435,-3.913 -0.443,-1.351 -1.03,-2.919 -1.76,-4.699 C 9.599,15.755 8.928,14.409 8.323,13.499 L 6.211,10.186 C 10.46,7.841 14.409,5.88 18.053,4.306 21.697,2.733 24.492,1.677 26.438,1.139 28.384,0.6 29.37,0.078 29.399,-0.435 29.425,-0.947 29.08,-1.366 28.363,-1.698 28.115,-1.837 27.548,-1.951 26.666,-2.05 25.781,-2.148 25.072,-2.365 24.533,-2.712 23.995,-3.059 23.47,-3.727 22.96,-4.72 22.448,-5.714 21.992,-6.522 21.594,-7.143 21.192,-7.764 20.248,-8.1 18.757,-8.157 17.515,-8.214 16.741,-8.1 16.438,-7.826 l -2.111,1.491 c 0.551,-0.854 0.89,-1.532 1.014,-2.029 0.124,-0.497 0.158,-1.118 0.104,-1.863 l -0.58,-3.313 -0.621,-5.714 c -0.029,-0.109 -0.339,-1.941 -0.932,-5.486 -0.595,-3.546 -1.154,-5.989 -1.677,-7.329 -0.525,-1.341 -1.263,-2.376 -2.215,-3.106 -0.952,-0.73 -2.678,-1.573 -5.176,-2.526 -2.5,-0.952 -4.052,-0.895 -4.658,0.166 -0.608,1.061 -0.87,1.967 -0.787,2.712 l 0.29,2.112 c 0,1.133 -0.29,2.013 -0.869,2.65 l -1.408,1.615 c -1.271,-1.796 -2.244,-3.085 -2.919,-3.872 -0.678,-0.787 -1.747,-1.884 -3.209,-3.292 -1.465,-1.407 -2.707,-2.401 -3.727,-2.981 l -2.484,-1.408 c -0.994,-0.719 -1.747,-1.123 -2.257,-1.221 -0.513,-0.099 -0.828,-0.062 -0.952,0.103 -0.125,0.166 -0.021,0.497 0.31,0.994 0.331,0.497 0.663,1.061 0.994,1.698 l 3.437,5.631 c 0.191,0.357 0.923,1.879 2.194,4.555 l 2.526,5.3 c 0.109,0.305 1.185,3.214 3.23,8.737 -1.051,-0.554 -2.086,-0.948 -3.106,-1.181 -1.022,-0.232 -1.713,-0.015 -2.07,0.663 -0.36,0.678 -0.621,1.454 -0.787,2.339 l -0.497,2.609 c -0.939,-0.497 -1.747,-0.885 -2.422,-1.159 -0.678,-0.275 -2.133,-0.678 -4.368,-1.201 0.082,-1.517 0.137,-2.65 0.165,-3.395 l -0.165,-6.046 c -0.057,-2.624 -0.249,-4.56 -0.58,-5.817 -0.331,-1.258 -1.201,-2.676 -2.609,-4.265 -1.408,-1.589 -2.691,-2.417 -3.851,-2.485 -1.159,-0.067 -1.933,0.047 -2.318,0.352 -0.526,0.388 -0.816,1.051 -0.87,1.988 l 0.124,2.567 c -0.082,0.662 -0.289,1.227 -0.621,1.698 -0.331,0.471 -0.905,1.035 -1.718,1.697 -0.815,0.663 -1.367,1.098 -1.656,1.305 -0.29,0.207 -0.484,0.455 -0.58,0.745 -0.098,0.29 -0.036,0.564 0.186,0.828 0.22,0.264 1.077,0.057 2.567,-0.621 1.491,-0.678 2.531,-0.828 3.127,-0.455 0.592,0.372 0.807,1.676 0.641,3.912 l 0.125,3.768 v 4.431 c -0.691,-0.663 -1.201,-1.144 -1.532,-1.449 l -4.514,-4.803 -3.892,-3.396 -2.567,-2.319 c -0.802,-0.662 -1.423,-1.237 -1.863,-1.718 -0.443,-0.481 -0.829,-0.761 -1.16,-0.828 -0.331,-0.067 -0.567,-0.047 -0.704,0.062 -0.139,0.109 -0.202,0.409 -0.186,0.89 0.013,0.482 0.323,1.196 0.932,2.133 l 1.697,2.608 c 0.357,0.58 1.242,2.045 2.65,4.389 l 3.561,5.922 c 1.822,3.09 3.753,6.692 5.797,10.807 -2.181,-0.689 -3.556,-1.227 -4.12,-1.615 -0.566,-0.388 -1.54,-1.201 -2.919,-2.443 -1.382,-1.242 -2.541,-1.983 -3.478,-2.215 -0.939,-0.233 -1.685,-0.171 -2.236,0.186 -0.36,0.191 -0.802,0.745 -1.325,1.656 l -1.822,2.816 c -0.471,0.745 -0.712,1.428 -0.725,2.049 -0.015,0.622 0.2,1.196 0.642,1.719 0.303,0.357 0.759,0.621 1.367,0.787 l 3.892,0.165 c 0.331,0.026 2.733,0.87 7.205,2.526 4.472,1.656 6.816,2.552 7.039,2.691 l 0.579,0.373 c -0.885,1.216 -1.796,2.298 -2.732,3.25" /></g></g></g></g></svg>